<?xml version="1.0" encoding="utf-8"?>
<!-- Generator: Adobe Illustrator 16.0.0, SVG Export Plug-In . SVG Version: 6.00 Build 0)  -->
<!DOCTYPE svg PUBLIC "-//W3C//DTD SVG 1.1//EN" "http://www.w3.org/Graphics/SVG/1.1/DTD/svg11.dtd">
<svg version="1.1" id="color" xmlns="http://www.w3.org/2000/svg" xmlns:xlink="http://www.w3.org/1999/xlink" x="0px" y="0px"
	 width="193.481px" height="84.522px" viewBox="0 0 193.481 84.522" enable-background="new 0 0 193.481 84.522"
	 xml:space="preserve">
<g>
	<path fill="#FAA61A" d="M50.896,23.772L0.889,78.789c-0.905,0.995-1.144,2.435-0.603,3.675c0.532,1.239,1.741,2.039,3.075,2.039
		h27.226c0.141,0.009,0.369,0.02,0.667,0.02h0.001c3.465,0,15.731-1.322,28.132-18.343c4.443-6.101,10.837-15.516,18.996-27.975
		l-4.715-5.118C65.134,46.14,58.521,55.898,53.979,62.131C43.177,76.958,33.151,77.708,31.256,77.708l-0.218-0.003
		c-0.106-0.011-0.217-0.02-0.327-0.02H11.027L55.904,28.32c0.039-0.046,4.172-4.684,9.451-4.684c3.073,0,6.114,1.605,9.039,4.771
		l1.358,1.476l4.701,5.152c1.051,1.178,1.976,2.235,2.79,3.17c5.08,5.817,7.187,8.231,13.5,8.231c6.315,0,8.417-2.418,13.498-8.239
		c0.099-0.117,0.199-0.233,0.304-0.351l-3.804-5.914c-0.549,0.626-1.061,1.207-1.536,1.749c-4.984,5.719-5.303,5.938-8.463,5.938
		c-3.162,0-3.478-0.219-8.464-5.935c-1.119-1.275-2.429-2.779-4.007-4.521l-4.718-5.138l-0.251-0.272
		c-4.245-4.596-8.939-6.926-13.947-6.926C56.966,16.827,51.082,23.556,50.896,23.772 M93.912,1.571
		c-0.064,0.102-5.384,8.54-12.368,19.375l4.735,5.116c4.298-6.663,8.052-12.555,10.461-16.348
		c2.777,4.377,7.337,11.526,12.464,19.448l3.819,5.872c9.168,14.058,16.272,24.556,21.08,31.142
		c12.395,17.023,24.663,18.346,28.128,18.346c0.297,0,0.526-0.011,0.668-0.02h27.221c1.335,0,2.541-0.8,3.078-2.039
		c0.536-1.24,0.298-2.68-0.606-3.675l-49.944-54.947c-0.246-0.289-6.137-7.015-14.523-7.015c-4.103,0-7.993,1.563-11.602,4.653
		l3.781,5.707c2.543-2.36,5.171-3.551,7.821-3.551c5.293,0,9.424,4.648,9.516,4.753l44.815,49.296h-19.682
		c-0.078,0-0.203,0.015-0.282,0.015l-0.26,0.008c-1.899,0-11.923-0.75-22.721-15.577c-4.903-6.718-12.228-17.562-21.791-32.245
		l-3.798-5.857C105.985,11.752,99.645,1.684,99.575,1.571C98.959,0.595,97.891,0,96.744,0C95.596,0,94.527,0.595,93.912,1.571"/>
</g>
</svg>
